<mxfile host="app.diagrams.net" agent="Mozilla/5.0 (Windows NT 10.0; Win64; x64) AppleWebKit/537.36 (KHTML, like Gecko) Chrome/132.0.0.0 Safari/537.36" version="27.2.0">
  <diagram name="Page-1" id="dZrU0kMsjJ5C0qUi8lvo">
    <mxGraphModel dx="786" dy="417" grid="1" gridSize="10" guides="1" tooltips="1" connect="1" arrows="1" fold="1" page="1" pageScale="1" pageWidth="850" pageHeight="1100" math="0" shadow="0">
      <root>
        <mxCell id="0" />
        <mxCell id="1" parent="0" />
        <mxCell id="BNtDZjOPGP3XTsJQUTeh-1" value="" style="rounded=1;whiteSpace=wrap;html=1;dashed=1;fillColor=none;" vertex="1" parent="1">
          <mxGeometry x="10" y="70" width="230" height="490" as="geometry" />
        </mxCell>
        <mxCell id="BNtDZjOPGP3XTsJQUTeh-2" value="Proposed Indicators for Prioritization" style="text;html=1;align=center;verticalAlign=middle;whiteSpace=wrap;rounded=0;" vertex="1" parent="1">
          <mxGeometry x="240" y="40" width="210" height="30" as="geometry" />
        </mxCell>
        <mxCell id="BNtDZjOPGP3XTsJQUTeh-5" value="Educational Outcome Indicator" style="rounded=0;whiteSpace=wrap;html=1;glass=0;fontStyle=0;spacing=5;" vertex="1" parent="1">
          <mxGeometry x="260" y="110" width="180" height="40" as="geometry" />
        </mxCell>
        <mxCell id="BNtDZjOPGP3XTsJQUTeh-6" value="Teacher&#39;s Capacity Indicator" style="rounded=0;whiteSpace=wrap;html=1;glass=0;fontStyle=0;spacing=5;" vertex="1" parent="1">
          <mxGeometry x="260" y="170" width="180" height="40" as="geometry" />
        </mxCell>
        <mxCell id="BNtDZjOPGP3XTsJQUTeh-7" value="School&#39;s Physical Condition Indicator" style="rounded=0;whiteSpace=wrap;html=1;glass=0;fontStyle=0;spacing=5;" vertex="1" parent="1">
          <mxGeometry x="260" y="230" width="180" height="40" as="geometry" />
        </mxCell>
        <mxCell id="BNtDZjOPGP3XTsJQUTeh-8" value="Building Vulnerability Indicator" style="rounded=0;whiteSpace=wrap;html=1;glass=0;fontStyle=0;spacing=5;" vertex="1" parent="1">
          <mxGeometry x="260" y="290" width="180" height="40" as="geometry" />
        </mxCell>
        <mxCell id="BNtDZjOPGP3XTsJQUTeh-9" value="Cost Efficiency Indicator" style="rounded=0;whiteSpace=wrap;html=1;glass=0;fontStyle=0;spacing=5;" vertex="1" parent="1">
          <mxGeometry x="260" y="350" width="180" height="40" as="geometry" />
        </mxCell>
        <mxCell id="BNtDZjOPGP3XTsJQUTeh-10" value="School Capacity Indicator" style="rounded=0;whiteSpace=wrap;html=1;glass=0;fontStyle=0;spacing=5;" vertex="1" parent="1">
          <mxGeometry x="260" y="410" width="180" height="40" as="geometry" />
        </mxCell>
        <mxCell id="BNtDZjOPGP3XTsJQUTeh-11" value="Voucher Opportunity Indicator" style="rounded=0;whiteSpace=wrap;html=1;glass=0;fontStyle=0;spacing=5;" vertex="1" parent="1">
          <mxGeometry x="260" y="470" width="180" height="40" as="geometry" />
        </mxCell>
        <mxCell id="BNtDZjOPGP3XTsJQUTeh-13" value="" style="rounded=1;whiteSpace=wrap;html=1;" vertex="1" parent="1">
          <mxGeometry x="530" y="80" width="170" height="30" as="geometry" />
        </mxCell>
      </root>
    </mxGraphModel>
  </diagram>
</mxfile>
